<?xml version="1.0" standalone="no"?>
<!DOCTYPE svg PUBLIC "-//W3C//DTD SVG 20010904//EN"
 "http://www.w3.org/TR/2001/REC-SVG-20010904/DTD/svg10.dtd">
<svg version="1.0" xmlns="http://www.w3.org/2000/svg"
 width="266.000000pt" height="266.000000pt" viewBox="0 0 266.000000 266.000000"
 preserveAspectRatio="xMidYMid meet">
<metadata>
Created by potrace 1.11, written by Peter Selinger 2001-2013
</metadata>
<g transform="translate(0.000000,266.000000) scale(0.100000,-0.100000)"
fill="#000000" stroke="none">
<path d="M1280 2392 c-24 -2 -49 -7 -55 -12 -6 -5 -36 -11 -66 -14 -110 -10
-327 -106 -362 -160 -9 -13 -30 -27 -46 -31 -33 -7 -147 -118 -215 -209 -97
-130 -183 -351 -186 -476 -1 -25 -2 -65 -2 -90 -4 -139 3 -220 25 -300 32
-115 83 -232 114 -266 14 -15 45 -57 68 -93 79 -124 204 -231 371 -316 38 -20
57 -33 42 -29 -20 4 -29 2 -34 -9 -3 -9 -12 -13 -20 -10 -15 5 -15 24 1 35 6
5 6 8 -2 8 -6 0 -15 -5 -18 -10 -4 -6 -11 -8 -16 -5 -5 4 -9 0 -9 -7 0 -10 -3
-9 -11 2 -8 12 -9 11 -5 -6 5 -14 2 -21 -9 -21 -13 0 -19 9 -17 27 0 3 -8 6
-19 6 -18 0 -18 -2 -5 -12 9 -6 13 -14 9 -18 -3 -3 -14 1 -24 10 -16 14 -17
14 -15 -3 2 -10 -4 -24 -13 -31 -13 -11 -12 -11 9 -1 36 18 68 23 53 8 -6 -6
-9 -17 -6 -24 3 -10 -2 -12 -19 -9 -21 4 -21 4 -3 -5 14 -6 23 -5 32 6 7 9 10
19 8 24 -3 4 -1 10 4 13 5 3 11 -1 15 -9 3 -8 1 -17 -4 -20 -6 -4 -10 -11 -10
-18 0 -6 6 -2 14 8 8 11 12 24 9 29 -4 5 -1 6 6 2 7 -4 9 -17 6 -29 -5 -16 -4
-18 3 -8 5 7 12 9 14 5 3 -5 3 -2 1 6 -8 29 -8 33 6 37 10 4 11 -1 7 -18 -7
-23 -6 -23 8 -5 14 18 15 18 13 -2 0 -11 -5 -18 -9 -16 -4 3 -8 1 -8 -5 0 -5
9 -9 20 -8 15 1 19 7 15 22 -3 11 -2 14 1 8 3 -7 13 -13 22 -13 13 0 14 2 4 9
-11 7 -11 9 1 14 19 7 16 -21 -4 -34 -19 -12 -2 -11 22 1 19 11 25 3 19 -25
-1 -5 4 -5 10 1 9 9 9 18 0 35 -11 23 -11 23 5 4 9 -11 23 -19 31 -17 8 2 13
-2 12 -9 -2 -6 4 -14 12 -16 13 -4 13 -3 0 6 -12 9 -10 11 12 11 15 0 30 4 33
10 4 6 13 5 25 -2 14 -9 22 -9 36 3 10 8 15 9 12 4 -4 -6 1 -19 9 -30 15 -20
15 -20 9 1 -6 18 -3 20 24 16 16 -2 30 -8 30 -12 0 -4 12 -6 27 -4 15 1 34 -2
43 -9 12 -9 13 -9 3 3 -17 18 -17 35 0 22 8 -7 18 -7 27 -2 10 6 22 4 36 -5
14 -9 25 -10 35 -3 11 7 9 8 -6 3 -17 -5 -18 -4 -7 7 11 11 16 10 28 -6 12
-17 14 -18 14 -3 0 9 5 17 11 17 5 0 7 -4 4 -10 -4 -6 1 -7 11 -3 10 4 15 2
11 -4 -3 -5 1 -10 9 -10 8 0 13 6 10 13 -3 7 3 18 12 26 15 12 16 11 3 -4 -12
-16 -11 -18 13 -18 18 0 25 -4 20 -12 -4 -7 -3 -8 4 -4 7 4 12 15 12 24 1 13
5 11 16 -8 8 -14 13 -17 10 -7 -3 9 -1 17 5 17 6 0 7 5 3 12 -5 7 -3 8 7 2 8
-4 20 -9 27 -10 30 -5 43 -14 36 -26 -6 -10 -5 -11 8 -1 8 7 17 10 20 7 3 -2
8 2 12 11 4 12 2 14 -13 5 -15 -7 -20 -6 -25 7 -4 9 -4 18 -1 21 3 3 5 1 5 -5
0 -6 16 -11 36 -11 22 0 32 3 24 8 -7 5 -8 10 -2 14 5 3 13 -1 16 -10 5 -13 9
-14 21 -4 8 7 15 17 15 22 0 6 -7 5 -15 -2 -15 -12 -21 -3 -16 24 1 5 -5 6
-14 2 -9 -3 -19 -6 -21 -6 -3 0 -3 -4 1 -9 3 -6 -5 -15 -17 -21 -21 -10 -21
-10 -6 3 10 8 15 17 12 20 -8 8 34 29 45 23 5 -3 12 1 15 10 4 10 14 14 26 11
11 -3 18 -2 15 3 -3 4 1 11 8 14 6 3 30 17 52 31 22 14 50 30 62 36 13 7 25
19 28 29 3 9 26 29 53 46 121 75 260 276 321 464 30 91 50 216 45 275 -2 27
-6 97 -8 155 -3 79 -11 126 -31 190 -37 117 -99 238 -144 281 -21 20 -45 52
-54 72 -32 67 -210 218 -279 237 -21 6 -46 20 -56 30 -28 30 -178 81 -252 87
-99 6 -115 9 -129 17 -14 9 -101 13 -171 8z m-386 -2007 c-7 -16 -24 -21 -24
-6 0 8 7 13 27 20 1 1 0 -6 -3 -14z m71 -16 c-4 -5 -12 -9 -18 -8 -9 0 -8 2 1
6 6 2 9 10 6 15 -4 7 -2 8 5 4 6 -4 9 -12 6 -17z m119 -35 c3 -8 2 -12 -4 -9
-6 3 -10 10 -10 16 0 14 7 11 14 -7z m227 -27 c-10 -9 -11 -8 -5 6 3 10 9 15
12 12 3 -3 0 -11 -7 -18z"/>
<path d="M1875 421 c-3 -5 -2 -12 3 -15 5 -3 9 1 9 9 0 17 -3 19 -12 6z"/>
<path d="M1802 404 c4 -4 0 -13 -10 -21 -16 -14 -16 -14 0 -9 25 8 33 -12 12
-35 -9 -10 -19 -17 -22 -14 -8 7 -42 -15 -42 -28 0 -8 3 -7 9 2 8 12 12 13 26
1 14 -11 16 -11 13 0 -2 10 7 14 27 14 21 0 34 7 43 23 16 29 37 32 22 3 -6
-11 -8 -20 -6 -20 6 0 36 55 36 65 0 3 -5 5 -11 5 -5 0 -7 -4 -4 -10 3 -5 -1
-10 -10 -10 -9 0 -13 5 -10 10 3 6 1 10 -5 10 -7 0 -9 -7 -6 -17 4 -10 4 -14
0 -10 -4 4 -13 2 -19 -3 -9 -8 -14 -6 -18 4 -4 10 -1 13 9 9 26 -10 14 14 -13
26 -16 7 -25 9 -21 5z m52 -59 c-4 -8 -9 -15 -13 -16 -3 0 -14 -2 -24 -4 -15
-3 -16 -1 -6 11 6 7 15 12 19 9 5 -3 11 -1 15 5 9 15 15 12 9 -5z"/>
<path d="M1952 400 c2 -8 -2 -14 -9 -13 -8 2 -10 -4 -6 -14 4 -11 8 -13 11 -5
2 7 7 10 12 7 10 -6 7 21 -4 32 -4 4 -6 1 -4 -7z"/>
<path d="M735 369 c-4 -6 -5 -12 -2 -15 2 -3 7 2 10 11 7 17 1 20 -8 4z"/>
<path d="M695 360 c-3 -5 -1 -10 4 -10 6 0 11 5 11 10 0 6 -2 10 -4 10 -3 0
-8 -4 -11 -10z"/>
<path d="M1917 363 c-4 -3 -7 -11 -7 -17 0 -6 5 -5 12 2 6 6 9 14 7 17 -3 3
-9 2 -12 -2z"/>
<path d="M1939 348 c-5 -18 -6 -38 -1 -34 7 8 12 36 6 36 -2 0 -4 -1 -5 -2z"/>
<path d="M1895 320 c-3 -5 -1 -10 4 -10 6 0 11 5 11 10 0 6 -2 10 -4 10 -3 0
-8 -4 -11 -10z"/>
<path d="M1122 307 c-9 -10 -6 -13 13 -13 19 0 22 3 13 13 -6 7 -12 13 -13 13
-1 0 -7 -6 -13 -13z"/>
<path d="M1630 308 c0 -4 4 -8 9 -8 6 0 12 4 15 8 3 5 -1 9 -9 9 -8 0 -15 -4
-15 -9z"/>
<path d="M1374 299 c-4 -7 -3 -9 4 -5 5 3 13 0 15 -6 4 -9 6 -10 6 -1 1 17
-16 25 -25 12z"/>
</g>
</svg>
